<?xml version="1.0" encoding="utf-8"?>
<!-- Generator: Adobe Illustrator 22.0.0, SVG Export Plug-In . SVG Version: 6.00 Build 0)  -->
<svg version="1.1" id="Layer_1" xmlns="http://www.w3.org/2000/svg" xmlns:xlink="http://www.w3.org/1999/xlink" x="0px" y="0px"
	 viewBox="0 0 744.2 160.2" style="enable-background:new 0 0 744.2 160.2;" xml:space="preserve">
<style type="text/css">
	.st0{fill:#EFEFEF;}
</style>
<title>Asset 1</title>
<g id="Layer_2_1_">
	<g id="Layer_1-2">
		<path class="st0" d="M80.3,1.7c4,0,6.6,3.5,7.8,10.6c0.1,1.7,0.2,3.8,0.3,6.3c0,8.7-4.8,31.6-14.5,68.8
			c-4.4,16.5-8,33.3-10.7,50.2c-0.3,2.7-1.3,4-3.1,4c-1.9-0.2-3.2-1.8-3.1-3.6c0-3.4,2.1-14.6,6.2-33.6C71.2,73,76.5,51,79.3,38.6
			c1.9-9.2,2.9-16,2.9-20.4c0-4.7-0.5-7.8-1.6-9.1c-0.2,0-0.3,0-0.5-0.1c-1.6,0-4.4,2.4-8.4,7.2c-5.3,7-10,14.4-14.1,22.2
			c-6.3,12-11.7,24.5-16,37.4c-2.7,9.1-4,14.8-4,17.3c-0.4,2.7-1.4,4-3,4h-0.5c-1.9-0.5-2.9-1.7-2.9-3.4c0.6-9.2,0.9-16.8,0.9-22.9
			v-2.8c0-10.6-1-17.6-3.1-21c-0.3-0.2-0.6-0.4-1-0.5c-1.9,0.5-4.6,3.9-8,10c-3.4,6.9-6.2,14-8.4,21.3c-3.6,12.3-5.4,22.3-5.4,30.1
			v2.5c0,1.1,0.2,3.2,0.5,6.2c-0.5,2.2-1.4,3.2-2.8,3.2H3.6c-2.3,0-3.4-2.4-3.4-7.3c-0.1-1-0.2-2-0.2-3c0-12.5,3.2-27.7,9.7-45.6
			c6.8-16.6,13.1-24.9,19-24.9c4.8,0,7.8,6,9.2,17.9c0.3,4.3,0.5,7.3,0.5,9h0.1c4.2-11.5,9.2-22.7,15-33.5
			C64.9,11.9,73.9,1.7,80.3,1.7z"/>
		<path class="st0" d="M102.3,66.8c3.7,0,6.2,2.4,7.5,7.2c0.1,0.9,0.2,1.7,0.2,2.6v1.2c0,1-0.1,2-0.2,3h0.2
			c6.3-2.1,12.5-4.5,18.5-7.3c0.7-0.3,1.5-0.4,2.2-0.5h0.1c0.1,0.1,0.2,0.2,0.2,0.3c0,0.7-1.8,2.4-5.4,5.1
			c-3.7,2.9-7.6,5.5-11.8,7.8c-2.1,1.1-4.4,2.1-6.6,3c-4.4,9.1-10,13.7-16.8,13.7c-4.1,0-6.8-2.3-8.3-7c-0.3-1.4-0.4-2.7-0.4-4.1
			c0-6.4,2.5-12.6,6.9-17.4c1.3-1.1,2.7-2,4.4-2.6C95,68.6,98.6,66.8,102.3,66.8z M90.5,81.7c-1.9,3.9-2.9,7.3-2.9,10.2
			c0,2.6,0.8,3.9,2.5,3.9h0.6c3.2,0,6.2-1.9,8.9-5.6c-2,0-4.1-1-6.4-3c-1.7-2.2-2.6-4.1-2.6-5.6L90.5,81.7z M96.5,79.5v0.3
			c0,2.4,1.5,3.7,4.6,3.7c1.2-0.1,1.9-0.2,2-0.2c0.6-1.9,0.9-4,1-6c0-2.3-0.6-3.4-1.8-3.4h-0.8c-2.3,0-4,1.6-5,4.7
			C96.5,78.8,96.5,79.1,96.5,79.5L96.5,79.5z"/>
		<path class="st0" d="M130.8,65.1c1.6,0,2.4,1.2,2.6,3.5c-2.2,6.6-5.2,16.4-9,29.3c11.2-6.3,21.8-13.4,31.9-21.3h0.5v0.3
			c-2,4.3-8.1,10.4-18.2,18.1c-5.4,4.2-11.1,8-16.9,11.6c-6.1,20-11,34.2-14.7,42.7c-3.9,7.4-8.5,11.1-13.8,11.1
			c-4.7,0-8.3-3.1-10.8-9.3c-0.9-3.1-1.2-6.4-0.9-9.7c1.3-12.4,10.2-23.7,26.9-33.9c1.9-1.2,4.7-3,8.6-5.4
			c6.1-20.1,9.7-31.8,10.8-35.1C128.4,65.8,129.5,65.1,130.8,65.1z M87.5,140.9l-0.1,0.7c-0.5,5.2,1,8.9,4.7,11.3
			c0.5,0.1,1,0.2,1.6,0.3h0.7c4,0,7.8-5.7,11.4-17.1c2.4-6.5,5.1-14.8,8.3-24.9h-0.1c-6,3.6-11.6,7.7-16.8,12.4
			C91.3,129.2,88.1,135,87.5,140.9z M133.9,51.6c2.3,0.4,3.3,1.7,3.1,3.9l-0.1,0.6c-0.8,2.3-2.1,3.5-3.9,3.5s-2.8-1.3-2.9-4v-0.1
			c0.6-2.5,1.8-3.8,3.5-3.8C133.7,51.7,133.7,51.6,133.9,51.6z"/>
		<path class="st0" d="M176.5,63.8h0.1c2,0.3,3,1.3,3,3v0.5c0,1.1-0.8,4.3-2.4,9.6c-1,3.9-1.6,7.8-1.7,11.8v0.1
			c0,3.8,0.6,5.7,1.8,5.7c2.2,0,6.3-2.8,12.4-8.5c6.1-6.6,9.6-9.9,10.6-9.9c0.1,0,0.2,0.1,0.2,0.3c-0.5,2.1-3.2,6.8-7.9,13.9
			c-5.8,7.4-10.8,11.1-14.9,11.1H177c-3.3,0-5.6-2.4-6.9-7.3c-0.3-1.3-0.4-2.6-0.5-3.8c-3.5,3.9-7.3,5.8-11.5,5.8
			c-4.3,0-7.1-2.2-8.5-6.7c-0.2-0.9-0.3-1.7-0.4-2.6c0-4.7,1.9-9.3,5.8-14c3.2-3.4,7.6-5.3,12.2-5.3c3,0,4.9,0.5,5.7,1.4
			C173.8,65.5,174.9,63.8,176.5,63.8z M155.3,86.6v0.4c0,1.1,0.8,1.8,2.5,2h0.6c4.7,0,9-4.8,12.9-14.4h-0.1l-3.4-0.3h-0.9
			c-5.2,0-8.9,3.2-11.1,9.5C155.5,84.8,155.3,85.7,155.3,86.6z"/>
		<path class="st0" d="M313.1,5.9h0.8c1.8,0.5,2.7,1.6,2.7,3.1v0.9c0,2.3-6,9.7-18.1,22.4c-12.4,12.1-22.5,19.9-30.4,23.4
			c-4.4,2-7.6,3.1-9.6,3.2v0.2c6.3,10.7,12.1,21.8,17.3,33.1c5.8,12.9,10.7,26.1,14.8,39.6c0.1,0.4,0.1,0.7,0.1,1.1
			c-0.3,2.4-1.3,3.6-3.1,3.6c-1.8,0-3-1.8-3.7-5.3c-5.4-16.7-12-32.9-19.8-48.6c-3.4-6.6-7-13.1-10.9-19.7h-0.1
			c-5.9,18.1-11.9,37-17.9,56.8c-0.6,0.9-1.6,1.5-2.7,1.5c-1.7,0-2.7-1.3-3-3.8c4.1-14,9.2-30.4,15.3-49.2c4.9-15,10.8-32,17.6-51
			c-1.6,0.3-6.3,2.7-14.3,7.1c-18.6,12.1-27.9,25.3-27.9,39.5c0,6.4,2.4,13,7.2,19.9c0.2,0.4,0.4,0.9,0.4,1.3
			c-0.3,2.5-1.2,3.8-2.8,3.8h-0.4c-1.6,0-3.2-1.9-5.1-5.6c-3.6-6-5.6-12.8-5.6-19.8c0-13.6,7.4-26.6,22.1-38.9
			c5.1-3.9,10.6-7.4,16.3-10.5c5-2.5,10.2-4.6,15.6-6.2l0,0c1.8,0.1,3.2,1.6,3.1,3.4c0,0.1,0,0.1,0,0.2c0,0.7-1,3.6-3,8.8
			c-4.2,11.5-7.9,22.1-11.1,31.7l0,0c3.9-0.3,9.4-2.7,16.5-7.2c5-3.3,11.3-8.6,19-15.8c3.4-3,8.6-8.7,15.5-16.9
			c1.2-1.7,2.4-3.5,3.4-5.3C311.9,6.3,312.5,6,313.1,5.9z"/>
		<path class="st0" d="M307.5,66.8c3.7,0,6.2,2.4,7.5,7.2c0.1,0.9,0.2,1.7,0.2,2.6v1.2c0,1-0.1,2-0.2,3h0.2
			c6.3-2.1,12.5-4.5,18.5-7.3c0.7-0.2,1.5-0.4,2.3-0.4h0.1c0.1,0.1,0.2,0.2,0.2,0.3c0,0.7-1.8,2.4-5.4,5.1
			c-3.7,2.9-7.6,5.5-11.8,7.7c-2.1,1.1-4.4,2.1-6.6,3c-4.4,9.1-10,13.7-16.8,13.7c-4.1,0-6.8-2.3-8.3-7c-0.3-1.4-0.4-2.7-0.4-4.1
			c0-6.4,2.5-12.6,6.9-17.4c1.3-1.2,2.7-2,4.3-2.6C300.1,68.6,303.7,66.8,307.5,66.8z M295.6,81.7c-1.9,3.9-2.9,7.3-2.9,10.2
			c0,2.6,0.8,3.9,2.5,3.9h0.6c3.2,0,6.2-1.9,8.9-5.6c-2,0-4.1-1-6.4-3c-1.7-2.2-2.6-4.1-2.6-5.6L295.6,81.7z M301.6,79.5v0.3
			c0,2.4,1.5,3.7,4.6,3.7c1.2-0.1,1.9-0.2,2-0.2c0.6-1.9,0.9-4,1-6c0-2.3-0.6-3.4-1.8-3.4h-0.8c-2.3,0-4,1.6-5,4.7
			C301.6,78.8,301.6,79.1,301.6,79.5L301.6,79.5z"/>
		<path class="st0" d="M353,15.3h0.6c1.8,0.5,2.6,1.5,2.6,3.1v0.6c0,0.7-0.7,2-2,4c-5.8,12-11.4,27.1-16.7,45.5
			c-3.3,12.4-5,22.1-5,29v0.6c0,5.3,1.1,7.9,3.3,7.9c4.4,0,14.1-7.9,29.1-23.7c4-3.8,6.3-5.6,7-5.6h0.1c0.2,0,0.2,0.1,0.2,0.3
			c-0.4,1.7-4.5,7.6-12.5,17.7c-10.4,12.1-18.3,18.2-23.7,18.2h-0.5c-4,0-6.7-2.7-8.2-8c-0.5-2.1-0.7-4.2-0.7-6.3v-1.8
			c0-13.5,5.3-34.1,15.8-61.8c3.7-9.1,6.7-15.4,8.9-18.8C351.8,15.6,352.4,15.4,353,15.3z"/>
		<path class="st0" d="M381.6,64.5c5,0,8.3,2.5,10,7.5c0.1,0.8,0.2,1.6,0.2,2.4c0,4-3.1,7.8-9.4,11.3c-2.1,0.9-4.3,1.5-6.6,1.5H375
			c-1.7-0.1-3.5-0.5-5.1-1.2v0.1l-0.3,2.8c0,4.3,2.7,6.5,8,6.5c7.2,0,15.9-5,26.3-15c3.2-2.9,5.4-4.7,6.6-5.2h0.2
			c0.1,0,0.2,0.1,0.2,0.3c-1,2.6-4.1,7.1-9.2,13.5c-7.5,8.8-15.6,13.2-24.2,13.2c-6.6,0-11-2.8-13.2-8.5c-0.4-1.6-0.6-3.1-0.6-4.7
			V89c0-5.4,1.7-10.9,5.1-16.6C372.4,67.2,376.7,64.5,381.6,64.5z M372,79.5c1.1,0.7,2.3,1,3.6,1c3.6,0,7-1.9,10.3-5.7
			c0-0.1,0-0.2,0.1-0.4c0-1.6-1.5-2.6-4.4-3C377.7,71.4,374.5,74.1,372,79.5z"/>
		<path class="st0" d="M431.1,7.8c1.6,0,2.6,1.1,2.9,3.4c0,0.5-1.1,3.7-3.4,9.6c-4.7,12.3-10,30.2-15.7,53.7
			c6-7.8,11.2-11.7,15.6-11.7c3.4,0,5.9,2.3,7.3,6.9c0.1,0.9,0.2,1.7,0.2,2.6c0,5.1-2.5,9.9-7.6,14.5c-3.4,2.3-6.4,3.7-8.9,4
			c1.2,8.9,3.6,13.3,7.2,13.3c4.7,0,12.3-8.6,22.7-25.9c1.1-1.6,2-2.3,2.6-2.3c0.1,0,0.3,0.2,0.5,0.5v1.3
			c-1.3,5.1-4.5,11.9-9.6,20.6c-5.8,8.5-11.1,12.8-15.9,12.8h-1.2c-5.3,0-9.1-4.9-11.4-14.7c-0.6-2.9-1-5.8-1.3-8.7
			c0.5-2.2,1.4-3.3,2.9-3.3c4.5,0,8.4-2.1,11.9-6.2c1.2-1.8,1.9-3.8,2.1-5.9c-0.3-1.7-0.8-2.5-1.5-2.5h-0.1
			c-3.1,0-7.6,4.3-13.4,12.8c-3.4,5.7-6.2,11.8-8.3,18.2c-0.6,2.6-1.8,3.9-3.5,3.9c-1.9-0.4-2.8-1.4-2.8-3v-0.3
			c0-0.7,3.2-14.2,9.7-40.4c5.6-21.2,11.1-38.4,16.6-51.6C429.1,8.4,430.1,7.9,431.1,7.8z"/>
		<path class="st0" d="M462.8,64.7h0.8c3.7,0,6.7,1.8,8.8,5.6c0.6,1.3,0.9,2.8,0.9,4.2c0.2,3-1.3,5.9-3.9,7.5
			c-0.3,0.1-0.7,0.1-1,0.1c-1.7,0-2.6-1.2-3-3.6c0.1-1.2,0.7-2.3,1.6-3c0.1-0.3,0.2-0.7,0.3-1.2c0-1.6-1.4-2.5-4.1-2.9
			c-4.4,0-7.9,3.6-10.4,10.7c-0.6,1.9-1,4-1.1,6c0,2.9,1.1,4.8,3.4,5.7c1.3,0.5,2.6,0.7,4,0.7h1.3c7.7,0,17.5-6.6,29.3-19.8
			c0.3-0.1,0.7-0.2,1-0.3h0.3c0.2,0,0.3,0.2,0.4,0.6c-0.3,1.8-2.4,5.5-6.2,11.1c-4.1,4.8-7.2,7.8-9.4,9c-6,4.1-11.5,6.2-16.6,6.2
			c-6.4,0-10.6-2.8-12.7-8.5c-0.5-1.4-0.7-2.9-0.7-4.4v-0.4c0-5.8,2-11.7,6.1-17.5C455.3,66.7,458.9,64.7,462.8,64.7z"/>
		<path class="st0" d="M493,62.6c1.7,0,2.7,1.2,2.9,3.6c-4.2,12.5-6.4,20.8-6.5,24.9l-0.1,1.2c-0.1,2.3,0.3,3.7,1.2,4h0.4
			c1.8,0,5.4-4.4,11-13.3c1.7-3.2,3.6-6.2,5.8-9.1h0.3c0.1,0,0.2,0.3,0.3,0.8c-2,8.5-5.8,16.5-11.1,23.5c-2.8,3.3-5.2,5-7.4,5
			c-1.9,0-3.6-1.2-5.1-3.5c-1.1-2.2-1.5-4.6-1.4-7l0.1-1.8c0.3-5.2,2.6-14.1,6.9-26.5C490.9,63.3,491.9,62.7,493,62.6z M496,50.4
			c2.3,0.4,3.4,1.7,3.3,3.8v0.3c-0.1,2.2-1.3,3.5-3.7,3.8c-1.8,0-2.9-1.3-3.2-3.9l0.1-0.2c0.5-2.5,1.6-3.8,3.3-3.8
			C495.7,50.4,495.8,50.4,496,50.4L496,50.4z"/>
		<path class="st0" d="M509.2,65.1c1.6,0,2.4,1.2,2.6,3.5c-2.2,6.6-5.2,16.4-9,29.3c11.2-6.3,21.8-13.4,31.9-21.3h0.5v0.3
			c-2,4.3-8.1,10.4-18.2,18.1c-5.4,4.2-11,8-16.9,11.6c-6.1,20-11,34.2-14.7,42.7c-3.9,7.4-8.5,11.1-13.8,11.1
			c-4.7,0-8.3-3.1-10.8-9.3c-0.9-3.1-1.2-6.4-0.9-9.7c1.3-12.4,10.2-23.7,26.9-33.9c1.9-1.2,4.7-3,8.6-5.4
			c6.1-20.1,9.7-31.8,10.8-35.1C506.9,65.8,508,65.1,509.2,65.1z M466,140.9l-0.1,0.7c-0.5,5.2,1,8.9,4.7,11.3
			c0.5,0.1,1,0.2,1.6,0.3h0.7c4,0,7.8-5.7,11.4-17.1c2.4-6.5,5.1-14.8,8.3-24.9h-0.1c-6,3.6-11.6,7.7-16.8,12.4
			C469.8,129.2,466.6,135,466,140.9z M512.4,51.6c2.3,0.4,3.3,1.7,3.1,3.9l-0.1,0.6c-0.8,2.3-2.1,3.5-3.9,3.5s-2.8-1.3-2.9-4v-0.1
			c0.6-2.5,1.8-3.8,3.5-3.8C512.1,51.7,512.2,51.6,512.4,51.6L512.4,51.6z"/>
		<path class="st0" d="M555,63.8h0.2c2,0.3,3,1.3,3,3v0.5c0,1.1-0.8,4.3-2.4,9.6c-1,3.9-1.6,7.9-1.7,11.9v0.1c0,3.8,0.6,5.7,1.8,5.7
			c2.2,0,6.3-2.8,12.4-8.5c6.1-6.6,9.6-9.9,10.6-9.9c0.2,0,0.2,0.1,0.2,0.3c-0.5,2.1-3.2,6.8-8,13.9c-5.8,7.4-10.8,11.1-14.9,11.1
			h-0.7c-3.3,0-5.6-2.4-6.9-7.3c-0.3-1.3-0.4-2.6-0.5-3.8c-3.5,3.9-7.3,5.8-11.4,5.8c-4.3,0-7.1-2.2-8.5-6.7
			c-0.2-0.9-0.3-1.7-0.4-2.6c0-4.7,1.9-9.3,5.8-14c3.2-3.4,7.6-5.3,12.2-5.3c3,0,4.9,0.5,5.7,1.4C552.2,65.5,553.4,63.8,555,63.8z
			 M533.8,86.6v0.4c0,1.1,0.8,1.8,2.5,2h0.6c4.7,0,9-4.8,12.9-14.4h-0.2l-3.4-0.3h-0.9c-5.2,0-8.9,3.2-11.1,9.5
			C534,84.8,533.8,85.7,533.8,86.6L533.8,86.6z"/>
		<path class="st0" d="M680.3,0h1.3c1.9,0,3.3,1.6,3.3,3.4c0,0.1,0,0.2,0,0.2c-0.4,2.4-1.4,3.6-3,3.6c-0.3-0.1-0.7-0.2-1-0.2
			c-9.8,0-23.6,20.6-41.5,61.9c-0.5,0.7-6.1,13.5-16.8,38.4c-5.2,11.9-9.4,20.3-12.7,25.2c-2.2,3.3-4.3,5-6.2,5h-0.2
			c-5.9,0-9.5-13.9-10.7-41.7c-0.2-5.1-0.3-10.6-0.3-16.4c0-25.5,1.6-46.7,4.7-63.8c0.7-3.7,1.8-5.6,3.5-5.6h0.6
			c1.3,0,2.2,1.1,2.8,3.1v0.4c-3.6,15.3-5.4,37.2-5.4,65.5c0,22.1,1.1,38.2,3.3,48.3c0.6,1.6,1,2.4,1.4,2.6h0.1
			c2.9-3.6,5.2-7.6,6.9-11.9c2.8-5.6,10.4-22.9,22.9-51.9C653,22.1,668.6,0,680.3,0z"/>
		<path class="st0" d="M652.5,62.6c1.7,0,2.7,1.2,2.9,3.6c-4.2,12.5-6.3,20.8-6.5,24.9l-0.1,1.2c0,2.3,0.3,3.7,1.2,4h0.4
			c1.8,0,5.4-4.4,11-13.3c1.7-3.2,3.6-6.2,5.8-9.1h0.3c0.1,0,0.2,0.3,0.3,0.8c-2,8.5-5.8,16.5-11.1,23.5c-2.8,3.3-5.2,5-7.4,5
			c-1.9,0-3.6-1.2-5.1-3.5c-1.1-2.2-1.5-4.6-1.4-7l0.1-1.8c0.3-5.2,2.6-14.1,6.9-26.5C650.4,63.4,651.4,62.7,652.5,62.6z
			 M655.5,50.4c2.3,0.4,3.4,1.7,3.3,3.8v0.3c-0.1,2.2-1.3,3.5-3.7,3.8c-1.8,0-2.9-1.3-3.2-3.9l0.1-0.2c0.5-2.5,1.6-3.8,3.3-3.8
			C655.2,50.4,655.3,50.4,655.5,50.4L655.5,50.4z"/>
		<path class="st0" d="M682.5,66.1h1c2.5,0,4.2,1.7,5,5c0.1,0.8,0.2,1.6,0.2,2.3v1c0,2.8-1,8.7-3.1,17.8v0.1h0.3
			c0.3,0,4.6-4.8,12.9-14.5c1.2-1.3,2.1-1.9,2.5-1.9c0.2,0,0.2,0.2,0.2,0.4c-0.4,1.8-3.1,6.6-8.1,14.4c-4.3,6.6-7.9,9.9-11,9.9
			c-1.8,0-2.9-1.3-3.3-4l-0.1-1.3c0-1.7,1-7.3,3.1-16.6c0.4-1.7,0.5-3.4,0.5-5.1V73c-1.7,0-4.8,4.7-9.3,14.1
			c-4.5,10-7.5,16.1-8.8,18.4c-0.5,0.5-1.1,0.8-1.8,0.9h-0.5c-1.4,0-2.7-1-2.9-2.5v-1.1c0-2.1,1.9-11.9,5.6-29.2
			c0.9-4.6,1.7-6.9,2.3-6.9c0.5-0.4,1.1-0.7,1.7-0.6c1.9,0.4,2.9,1.5,2.9,3.1v0.4c0,0.5-0.7,4-2.1,10.5v0.1h0.1
			C675.1,70.9,679.2,66.1,682.5,66.1z"/>
		<path class="st0" d="M720.2,63.8h0.2c2,0.3,3,1.3,3,3v0.5c0,1.1-0.8,4.3-2.4,9.6c-1,3.9-1.6,7.8-1.7,11.8v0.1
			c0,3.8,0.6,5.7,1.8,5.7c2.2,0,6.3-2.8,12.4-8.5c6.1-6.6,9.6-9.9,10.6-9.9c0.2,0,0.2,0.1,0.2,0.3c-0.5,2.1-3.2,6.8-8,13.9
			c-5.8,7.4-10.8,11.1-14.9,11.1h-0.7c-3.3,0-5.6-2.4-6.9-7.3c-0.3-1.3-0.4-2.6-0.5-3.8C709.8,94,706,96,701.8,96
			c-4.3,0-7.1-2.2-8.5-6.7c-0.2-0.9-0.3-1.7-0.4-2.6c0-4.7,1.9-9.3,5.8-14c3.1-3.4,7.6-5.3,12.2-5.3c3,0,4.9,0.5,5.7,1.4
			C717.4,65.5,718.6,63.8,720.2,63.8z M699,86.6v0.4c0,1.1,0.8,1.8,2.5,2h0.6c4.7,0,9-4.8,12.9-14.4h-0.2l-3.4-0.3h-0.9
			c-5.2,0-8.9,3.2-11.1,9.5C699.2,84.8,699,85.7,699,86.6z"/>
	</g>
</g>
</svg>
